<?xml version="1.0" standalone="no"?><!DOCTYPE svg PUBLIC "-//W3C//DTD SVG 1.1//EN" "http://www.w3.org/Graphics/SVG/1.1/DTD/svg11.dtd"><svg t="1735732691041" class="icon" viewBox="0 0 1024 1024" version="1.1" xmlns="http://www.w3.org/2000/svg" p-id="4436" xmlns:xlink="http://www.w3.org/1999/xlink" width="200" height="200"><path d="M150.2 839h420.9c21 0 38 17.3 38 38.7 0 21.4-17 38.7-38 38.7H150.2c-21 0-38-17.3-38-38.7 0-21.4 17-38.7 38-38.7zM273.4 349.4L380.9 242 889 750.1c16 16 16 42 0 58.1l-49.4 49.4c-16 16-42 16-58.1 0L273.4 349.4zM571.4 110.4l155.8 155.9c16.3 16.3 16.3 42.7 0 59l-77.9 77.9-214.8-214.9 77.9-77.9c16.3-16.3 42.7-16.3 59 0zM219.6 403.2l214.9 214.9-76.5 76.6c-17.1 17.1-44.7 17.1-61.8 0L143 541.5c-17.1-17.1-17.1-44.7 0-61.8l76.6-76.5z" p-id="4437"></path></svg>